HIERARCHY
ROOT Hips
{
	OFFSET 0.00000 0.00000 0.00000
	CHANNELS 6 Xposition Yposition Zposition Zrotation Yrotation Xrotation 
	JOINT LHipJoint
	{
		OFFSET 0 0 0
		CHANNELS 3 Zrotation Yrotation Xrotation
		JOINT LeftHip
		{
			OFFSET 1.64577 -1.42384 0.94276
			CHANNELS 3 Zrotation Yrotation Xrotation
			JOINT LeftKnee
			{
				OFFSET 2.11538 -5.81197 0.00000
				CHANNELS 3 Zrotation Yrotation Xrotation
				JOINT LeftAnkle
				{
					OFFSET 2.36541 -6.49893 0.00000
					CHANNELS 3 Zrotation Yrotation Xrotation
					JOINT LeftToe
					{
						OFFSET 0.17759 -0.48793 1.73865
						CHANNELS 3 Zrotation Yrotation Xrotation
						End Site
						{
							OFFSET 0.00000 -0.00000 0.91205
						}
					}
				}
			}
		}
	}
	JOINT RHipJoint
	{
		OFFSET 0 0 0
		CHANNELS 3 Zrotation Yrotation Xrotation
		JOINT RightHip
		{
			OFFSET -1.43750 -1.42384 0.94276
			CHANNELS 3 Zrotation Yrotation Xrotation
			JOINT RightKnee
			{
				OFFSET -2.10480 -5.78291 0.00000
				CHANNELS 3 Zrotation Yrotation Xrotation
				JOINT RightAnkle
				{
					OFFSET -2.34880 -6.45329 0.00000
					CHANNELS 3 Zrotation Yrotation Xrotation
					JOINT RightToe
					{
						OFFSET -0.22842 -0.62757 1.80469
						CHANNELS 3 Zrotation Yrotation Xrotation
						End Site
						{
							OFFSET -0.00000 -0.00000 0.95886
						}
					}
				}
			}
		}
	}
	JOINT lowerback
	{
		OFFSET 0 0 0
		CHANNELS 3 Zrotation Yrotation Xrotation
		JOINT Chest
		{
			OFFSET 0.06217 1.93758 -0.49272
			CHANNELS 3 Zrotation Yrotation Xrotation
			JOINT Chest2
			{
				OFFSET -0.03114 2.03621 -0.05830
				CHANNELS 3 Zrotation Yrotation Xrotation
				JOINT lowerneck
				{
					OFFSET 0 0 0
					CHANNELS 3 Zrotation Yrotation Xrotation
					JOINT Neck
					{
						OFFSET 0.04421 1.41010 0.26562
						CHANNELS 3 Zrotation Yrotation Xrotation
						JOINT Head
						{
							OFFSET -0.13407 1.43847 0.06181
							CHANNELS 3 Zrotation Yrotation Xrotation
							End Site
							{
								OFFSET -0.04980 1.45844 -0.00689
							}
						}
					}
				}
				JOINT LeftCollar
				{
					OFFSET 0 0 0
					CHANNELS 3 Zrotation Yrotation Xrotation
					JOINT LeftShoulder
					{
						OFFSET 2.18382 1.47753 -0.35694
CHANNELS 3 Zrotation Xrotation Yrotation
						JOINT LeftElbow
						{
OFFSET 0 -5.054600 0.000000
CHANNELS 3 Zrotation Xrotation Yrotation
							JOINT LeftWrist
							{
OFFSET 0 -3.390130 0.000000
CHANNELS 3 Zrotation Xrotation Yrotation
								JOINT lhand
								{
									OFFSET 0 0 0
CHANNELS 3 Zrotation Xrotation Yrotation
									JOINT LFingers
									{
OFFSET 0 -0.572420 -0.000000
CHANNELS 3 Zrotation Xrotation Yrotation
										End Site
										{
OFFSET 0 -0.461500 -0.000000
										}
									}
								}
								JOINT LThumb
								{
OFFSET 0 0.000000 0.000000
CHANNELS 3 Zrotation Xrotation Yrotation
									End Site
									{
OFFSET 0 -0.468550 0.468550
									}
								}
							}
						}
					}
				}
				JOINT RightCollar
				{
					OFFSET 0 0 0
					CHANNELS 3 Zrotation Yrotation Xrotation
					JOINT RightShoulder
					{
						OFFSET -2.06033 1.72839 -0.47437
CHANNELS 3 Zrotation Xrotation Yrotation
						JOINT RightElbow
						{
OFFSET 0 -5.070100 0.000000
CHANNELS 3 Zrotation Xrotation Yrotation
							JOINT RightWrist
							{
OFFSET 0 -3.149570 -0.000000
CHANNELS 3 Zrotation Xrotation Yrotation
								JOINT rhand
								{
									OFFSET 0 0 0
CHANNELS 3 Zrotation Xrotation Yrotation
									JOINT RFingers
									{
OFFSET 0 -0.718190 -0.000000
CHANNELS 3 Zrotation Xrotation Yrotation
										End Site
										{
OFFSET 0 -0.579020 -0.000000
										}
									}
								}
								JOINT RThumb
								{
OFFSET 0 0.000000 0.000000
CHANNELS 3 Zrotation Xrotation Yrotation
									End Site
									{
OFFSET 0 -0.587860 0.587860
									}
								}
							}
						}
					}
				}
			}
		}
	}
}
MOTION
Frames: 4
Frame Time: 0.008333333333333333
13.073800 15.136400 0.333200 173.919000 -84.789400 -176.238000 0.000000 0.000000 0.000000 -25.555700 -19.187900 -1.612100 3.771500 11.849900 35.203100 2.136300 14.748100 -36.101500 0.060400 -1.585500 -4.361500 0.000000 0.000000 0.000000 24.669900 17.342200 -2.688700 -3.775200 -11.855200 35.221500 -3.757200 -13.323700 -42.840800 -1.050700 6.518000 -18.295100 -0.863800 1.068000 3.115600 -2.040200 1.355200 2.652800 -1.637300 0.657100 1.003500 -4.333800 10.273000 -21.398000 -5.699200 -58.201600 9.201800 177.597000 -43.580500 37.020000 0.000000 0.000000 0.000000 7.663500 2.745300 -45.262200 16.663000 -26.411400 3.936300 19.250400 4.341200 -14.262800 0.000000 0.000000 0.000000 -7.125000 0.000000 0.000000 -7.645900 44.912300 -0.016700 0.000000 0.000000 0.000000 -2.705700 4.858200 47.474200 -18.507400 -28.802000 -4.791200 -14.838900 -18.989500 3.480900 0.000000 0.000000 0.000000 7.125000 0.000000 -0.000000 9.600300 33.466400 2.747500
13.065650 15.136609 0.324923 171.607017 -84.870856 -173.928790 0.000000 0.000000 0.000000 -25.717604 -19.063530 -1.602493 3.760123 11.834223 35.147932 2.086073 14.834401 -35.902595 0.099263 -2.031204 -5.591921 0.000000 0.000000 0.000000 24.513430 17.356476 -2.663672 -3.789246 -11.874532 35.289533 -3.757443 -13.475862 -42.933047 -1.039752 6.485051 -18.198538 -0.569715 1.301589 3.182210 -2.318258 1.668955 2.618116 -2.096677 0.819442 0.955232 -3.871902 9.955371 -22.432153 -7.190897 -59.825597 10.124193 172.613252 -52.665148 41.946432 0.000000 0.000000 0.000000 8.306037 2.734838 -46.058238 16.737318 -26.510191 3.969350 19.223073 4.338716 -14.372218 0.000000 0.000000 0.000000 -7.125000 0.000000 0.000000 -7.695262 45.022603 0.004291 0.000000 0.000000 0.000000 -2.262472 5.086206 46.637897 -18.437955 -28.714291 -4.757789 -14.797407 -19.430633 3.060489 0.000000 0.000000 0.000000 7.125000 0.000000 0.000000 9.581084 33.036466 2.843025
13.056581 15.134564 0.318718 172.703177 -84.707048 -175.026068 0.000000 0.000000 0.000000 -25.597284 -18.893919 -1.621091 3.772855 11.851873 35.209773 2.124069 14.743489 -36.033174 0.102248 -2.061694 -5.676103 0.000000 0.000000 0.000000 24.588409 17.255158 -2.664998 -3.782481 -11.865218 35.256926 -3.724096 -13.359780 -42.718925 -1.074912 6.590164 -18.506748 0.043355 1.560164 3.282419 -2.452495 2.025923 2.618640 -2.589316 1.008162 0.938583 -4.119488 9.782421 -23.828308 -9.617538 -61.992307 11.653670 162.166457 -62.820552 52.950497 0.000000 0.000000 0.000000 8.831531 2.752430 -46.871111 16.827173 -26.629391 4.009536 19.001172 4.433689 -14.486997 0.000000 0.000000 0.000000 -7.125000 0.000000 0.000000 -7.924355 45.114787 0.022574 0.000000 0.000000 0.000000 -1.811552 5.169696 45.212543 -18.310191 -28.552537 -4.696537 -14.478050 -19.024820 2.836736 0.000000 0.000000 0.000000 7.125000 0.000000 0.000000 9.809899 32.798310 2.969660
13.041453 15.135768 0.315609 173.731544 -84.602239 -175.940641 0.000000 0.000000 0.000000 -25.501864 -18.929857 -1.645782 3.775500 11.855577 35.222832 2.155686 14.751952 -36.207068 0.094531 -1.983272 -5.459523 0.000000 0.000000 0.000000 24.666180 17.323631 -2.701548 -3.771718 -11.850331 35.204444 -3.719974 -13.343204 -42.691093 -1.078136 6.599909 -18.535358 0.751590 1.782060 3.283389 -2.785425 2.337013 2.581269 -3.338102 1.176542 0.958470 -4.040622 9.346775 -25.288100 -10.519617 -63.442326 11.602155 146.885888 -69.586427 68.903668 0.000000 0.000000 0.000000 9.401904 2.465306 -47.110279 16.723394 -26.491684 3.963195 19.107799 4.557083 -14.614379 0.000000 0.000000 0.000000 -7.125000 0.000000 0.000000 -7.855794 45.259906 0.050795 0.000000 0.000000 0.000000 -1.263227 5.452346 44.242694 -18.359517 -28.615122 -4.720215 -14.608972 -18.914085 2.582790 0.000000 0.000000 0.000000 7.125000 0.000000 0.000000 9.674119 32.543813 2.987828
